<mxfile host="65bd71144e">
    <diagram name="Blackjack Game Flowchart" id="0">
        <mxGraphModel dx="578" dy="495" grid="1" gridSize="10" guides="1" tooltips="1" connect="1" arrows="1" fold="1" page="1" pageScale="1" pageWidth="827" pageHeight="1169" math="0" shadow="0">
            <root>
                <mxCell id="0"/>
                <mxCell id="1" parent="0"/>
                <mxCell id="2" value="Blackjack" style="diamond;whiteSpace=wrap;html=1;" vertex="1" parent="1">
                    <mxGeometry x="310" y="610" width="120" height="50" as="geometry"/>
                </mxCell>
            </root>
        </mxGraphModel>
    </diagram>
</mxfile>